<svg width="48" height="48" xmlns="http://www.w3.org/2000/svg"><g stroke="null"><path d="M47.75 24c0 13.115-10.635 23.75-23.75 23.75S.25 37.115.25 24 10.885.25 24 .25 47.75 10.885 47.75 24z" fill="#4caf50"/><path d="M24 .25V24l9.5 4.75-10.501 19H24c13.125 0 23.75-10.625 23.75-23.75S37.125.25 24 .25z" fill="#ffc107"/><path d="M47.75 24c0 13.115-10.635 23.75-23.75 23.75S.25 37.115.25 24 10.885.25 24 .25 47.75 10.885 47.75 24z" fill="#4caf50"/><path d="M24 .25V24l9.5 4.75-10.501 19H24c13.125 0 23.75-10.625 23.75-23.75S37.125.25 24 .25z" fill="#ffc107"/><path d="M45.185 13.313H24V28.75l-3.562-1.188L4.003 11.247h-.024C8.183 4.632 15.58.25 24 .25c9.263 0 17.278 5.32 21.185 13.063z" fill="#f44336"/><path d="M4 11.251L14.501 28.9l5.937-1.337L4 11.25z" fill="#dd2c00"/><path d="M22.999 47.75l10.61-19.07-4.859-3.493-5.751 22.563z" fill="#558b2f"/><path d="M45.215 13.313H24l-1.875 5.438 23.09-5.439z" fill="#f9a825"/><path d="M34.688 24c0 5.9-4.787 10.688-10.688 10.688S13.312 29.9 13.312 24 18.1 13.312 24 13.312 34.688 18.1 34.688 24z" fill="#fff"/><path d="M32.313 24c0 4.592-3.72 8.313-8.313 8.313s-8.313-3.72-8.313-8.313 3.72-8.313 8.313-8.313 8.313 3.72 8.313 8.313z" fill="#2196f3"/></g></svg>