<?xml version="1.0" encoding="UTF-8"?> <svg xmlns="http://www.w3.org/2000/svg" id="Layer_1" height="512" viewBox="0 0 512 512" width="512"><g><path d="m506.954 337.525-38.268-13.253v-4.616c0-12.928-10.518-23.445-23.445-23.445h-4.055v-56.746c0-17.7-2.483-35.143-7.389-51.957l11.992-4.036c1.886-.634 3.441-1.992 4.325-3.773.885-1.782 1.024-3.842.391-5.727-28.126-83.555-106.292-139.693-194.505-139.693s-166.379 56.138-194.505 139.692c-.634 1.885-.494 3.945.391 5.727.884 1.782 2.439 3.139 4.325 3.773l11.992 4.037c-4.906 16.814-7.389 34.257-7.389 51.957v56.746h-4.055c-12.928 0-23.445 10.518-23.445 23.445v4.616l-38.268 13.253c-3.021 1.046-5.046 3.891-5.046 7.087v62.146c0 3.196 2.025 6.041 5.046 7.087l38.268 13.253v4.617c0 12.928 10.518 23.445 23.445 23.445h33.269c4.127 11.64 15.249 20 28.286 20 16.542 0 30-13.458 30-30v-91.056c0-4.142-3.357-7.5-7.5-7.5s-7.5 3.358-7.5 7.5v91.056c0 8.271-6.729 15-15 15s-15-6.729-15-15v-138.949c0-8.271 6.729-15 15-15s15 6.729 15 15v13.401c0 4.142 3.357 7.5 7.5 7.5s7.5-3.358 7.5-7.5v-13.401c0-16.542-13.458-30-30-30-13.037 0-24.159 8.36-28.286 20h-14.215v-56.746c0-16.068 2.224-31.9 6.619-47.167l11.688 3.934c3.926 1.323 8.179-.789 9.501-4.715 20.586-61.152 77.803-102.238 142.379-102.238s121.793 41.086 142.378 102.238c1.055 3.132 3.976 5.109 7.107 5.109.793 0 1.601-.127 2.394-.394l11.688-3.934c4.395 15.268 6.619 31.099 6.619 47.167v56.746h-14.214c-4.127-11.64-15.249-20-28.286-20-16.542 0-30 13.458-30 30v91.056c0 4.142 3.357 7.5 7.5 7.5s7.5-3.358 7.5-7.5v-91.056c0-8.271 6.729-15 15-15s15 6.729 15 15v138.949c0 8.271-6.729 15-15 15s-15-6.729-15-15v-13.401c0-4.142-3.357-7.5-7.5-7.5s-7.5 3.358-7.5 7.5v13.401c0 16.542 13.458 30 30 30 13.037 0 24.159-8.36 28.286-20h33.269c12.928 0 23.445-10.518 23.445-23.445v-4.617l38.268-13.253c3.021-1.046 5.046-3.891 5.046-7.087v-62.146c0-3.196-2.025-6.041-5.046-7.087zm-463.641 73.699-28.313-9.805v-51.467l28.313-9.806zm55-100.013v128.949h-31.554c-4.657 0-8.445-3.789-8.445-8.445v-112.059c0-4.657 3.788-8.445 8.445-8.445zm311.729-131.534c-24.553-63.345-85.534-105.398-154.042-105.398s-129.489 42.053-154.042 105.398l-23.715-7.983c27.996-73.529 98.5-122.415 177.757-122.415s149.761 48.886 177.757 122.416zm43.645 252.038c0 4.657-3.788 8.445-8.445 8.445h-31.555v-128.949h31.555c4.657 0 8.445 3.789 8.445 8.445zm43.313-30.296-28.313 9.806v-71.078l28.313 9.805z"></path><path d="m300.35 392.908v-68.876c0-2.419-1.167-4.689-3.134-6.098-1.967-1.408-4.49-1.783-6.782-1.002l-58.763 19.992c-3.04 1.034-5.084 3.889-5.084 7.1v68.876c0 3.826-3.126 6.938-6.969 6.938-3.842 0-6.968-3.112-6.968-6.938 0-4.142-3.357-7.5-7.5-7.5s-7.5 3.358-7.5 7.5c0 12.097 9.854 21.938 21.968 21.938s21.969-9.841 21.969-21.938v-63.505l43.763-14.889v58.402c0 3.826-3.126 6.938-6.968 6.938-3.843 0-6.969-3.112-6.969-6.938 0-4.142-3.357-7.5-7.5-7.5s-7.5 3.358-7.5 7.5c0 12.097 9.855 21.938 21.969 21.938s21.968-9.841 21.968-21.938z"></path><path d="m199.575 310.273c0 4.142 3.357 7.5 7.5 7.5s7.5-3.358 7.5-7.5v-9.062h9.096c4.143 0 7.5-3.358 7.5-7.5s-3.357-7.5-7.5-7.5h-9.096v-9.061c0-4.142-3.357-7.5-7.5-7.5s-7.5 3.358-7.5 7.5v9.061h-9.096c-4.143 0-7.5 3.358-7.5 7.5s3.357 7.5 7.5 7.5h9.096z"></path><path d="m323.521 446.16h-9.096v-9.062c0-4.142-3.357-7.5-7.5-7.5s-7.5 3.358-7.5 7.5v9.062h-9.096c-4.143 0-7.5 3.358-7.5 7.5s3.357 7.5 7.5 7.5h9.096v9.061c0 4.142 3.357 7.5 7.5 7.5s7.5-3.358 7.5-7.5v-9.061h9.096c4.143 0 7.5-3.358 7.5-7.5s-3.358-7.5-7.5-7.5z"></path></g></svg> 