<?xml version="1.0" encoding="UTF-8"?> <!-- Generator: Adobe Illustrator 19.0.0, SVG Export Plug-In . SVG Version: 6.00 Build 0) --> <svg xmlns="http://www.w3.org/2000/svg" xmlns:xlink="http://www.w3.org/1999/xlink" version="1.1" id="Layer_1" x="0px" y="0px" viewBox="0 0 512 512" style="enable-background:new 0 0 512 512;" xml:space="preserve"> <g> <g> <path d="M456.54,0H55.461c-8.943,0-16.219,7.276-16.219,16.219v279.012c0,8.943,7.276,16.219,16.219,16.219h122.067 c4.142,0,7.5-3.358,7.5-7.5s-3.358-7.5-7.5-7.5h-18.658v-28.595h18.659c4.142,0,7.5-3.358,7.5-7.5c0-4.142-3.358-7.5-7.5-7.5 H54.241V58.595H248.5l0.001,123.286c0,4.142,3.358,7.5,7.5,7.5c4.143,0,7.5-3.358,7.5-7.5l-0.001-123.286h194.259v194.259H334.469 c-4.143,0-7.5,3.358-7.5,7.5c0,4.142,3.357,7.5,7.5,7.5h18.661v28.595h-18.658c-4.142,0-7.5,3.358-7.5,7.5s3.357,7.5,7.5,7.5 h122.067c8.943,0,16.219-7.276,16.219-16.219V16.219C472.758,7.276,465.483,0,456.54,0z M106.556,267.854h37.315v28.595h-37.315 V267.854z M91.556,267.854v28.595H55.46c-0.672,0-1.219-0.547-1.219-1.219v-27.376H91.556z M91.556,43.595H54.241V16.219 c0-0.672,0.547-1.219,1.219-1.219h36.096V43.595z M143.871,43.595h-37.315V15h37.315V43.595z M196.185,43.595h-37.314V15h37.314 V43.595z M248.5,43.595h-37.314V15H248.5V43.595z M405.443,296.449h-37.314v-28.595h37.314V296.449z M457.758,295.23 c0,0.673-0.547,1.22-1.218,1.22h-36.096v-28.596h37.314V295.23z M300.815,43.595h-37.315V15h37.315V43.595z M353.129,43.595 h-37.315V15h37.315V43.595z M405.443,43.595h-37.314V15h37.314V43.595z M457.759,43.595h-37.315V15h36.096 c0.672,0,1.219,0.547,1.219,1.219V43.595z"></path> </g> </g> <g> <g> <path d="M192.408,424.132c-1.034-4.011-5.124-6.424-9.135-5.391c-4.011,1.034-6.424,5.124-5.391,9.135 c0.574,2.226,0.865,4.534,0.865,6.86c0,15.096-12.281,27.376-27.376,27.376c-15.096,0-27.376-12.281-27.376-27.376 s12.281-27.376,27.376-27.376c2.323,0,4.628,0.29,6.85,0.862c4.013,1.033,8.1-1.382,9.133-5.394 c1.033-4.011-1.382-8.1-5.394-9.133c-3.442-0.886-7.005-1.335-10.589-1.335c-23.367,0-42.376,19.01-42.376,42.376 s19.01,42.376,42.376,42.376s42.376-19.01,42.376-42.376C193.747,431.148,193.296,427.58,192.408,424.132z"></path> </g> </g> <g> <g> <path d="M401.666,424.133c-1.032-4.011-5.118-6.423-9.133-5.392c-4.011,1.033-6.425,5.122-5.392,9.133 c0.573,2.227,0.864,4.536,0.864,6.861c0,15.096-12.281,27.376-27.376,27.376c-15.096,0-27.376-12.281-27.376-27.376 c0-15.096,12.281-27.376,27.376-27.376c2.323,0,4.628,0.29,6.851,0.862c4.015,1.033,8.101-1.383,9.133-5.394 c1.032-4.011-1.383-8.1-5.395-9.132c-3.442-0.886-7.006-1.335-10.589-1.335c-23.367,0-42.376,19.01-42.376,42.376 s19.01,42.376,42.376,42.376s42.376-19.01,42.376-42.376C403.005,431.149,402.555,427.582,401.666,424.133z"></path> </g> </g> <g> <g> <path d="M436.924,422.4c-4.561-29.361-26.147-53.656-54.993-61.893c-13.74-3.924-27.532-4.055-41.085-0.403l-45.164-67.746 c1.79-4.749,2.694-9.631,2.694-14.566c0-5.155-0.933-10.094-2.627-14.668l83.721-125.582c6.279-9.418,8.515-20.717,6.295-31.815 c-2.22-11.1-8.63-20.67-18.048-26.948c-3.446-2.298-8.103-1.367-10.4,2.08L256,232.835L154.682,80.857 c-2.297-3.446-6.953-4.378-10.4-2.08c-9.418,6.278-15.828,15.849-18.047,26.947c-2.219,11.099,0.016,22.398,6.294,31.816 l83.789,125.684c-1.79,4.749-2.694,9.631-2.694,14.567c0,5.155,0.933,10.094,2.627,14.668l-45.096,67.645 c-13.554-3.651-27.347-3.519-41.085,0.403c-28.845,8.238-50.43,32.532-54.991,61.893c-3.963,25.51,4.327,50.301,22.742,68.017 c14.633,14.077,33.523,21.585,53.438,21.583c5.155,0,10.38-0.503,15.617-1.526c29.658-5.792,53.77-29.557,60-59.137 c4.787-22.729-0.396-45.567-14.237-63.545l43.363-65.045l43.362,65.045c-13.841,17.979-19.023,40.816-14.236,63.545 c6.229,29.58,30.341,53.345,60,59.137c5.238,1.023,10.46,1.526,15.616,1.526c19.914,0,38.807-7.509,53.438-21.583 C432.597,472.701,440.887,447.91,436.924,422.4z M365.065,96.279c2.996,3.508,5.063,7.741,5.992,12.389 c1.434,7.17-0.01,14.47-4.066,20.555l-79.889,119.834c-4.517-4.885-10.164-8.706-16.525-11.044L365.065,96.279z M197.06,384.12 c-1.898,2.846-1.63,6.614,0.652,9.163c13.408,14.978,18.688,35.011,14.486,54.964c-5.005,23.764-24.375,42.854-48.198,47.507 c-20.604,4.023-40.932-1.862-55.781-16.147c-14.844-14.28-21.521-34.291-18.319-54.904c3.609-23.236,21.408-43.238,44.288-49.772 c12.607-3.6,25.27-3.239,37.637,1.069c3.23,1.124,6.811-0.077,8.708-2.922l44.366-66.55c4.517,4.885,10.165,8.706,16.526,11.044 L197.06,384.12z M403.781,479.606c-14.849,14.285-35.181,20.169-55.78,16.147c-23.823-4.653-43.192-23.745-48.197-47.507 c-4.202-19.953,1.077-39.986,14.485-54.964c2.281-2.548,2.55-6.317,0.652-9.163l-50.552-75.828 c-1.396-2.094-3.742-3.34-6.239-3.34c-0.152,0-0.306,0.004-0.459,0.014c-0.504,0.031-0.998,0.092-1.49,0.161 c-0.101,0.014-0.201,0.03-0.303,0.042c-15.049-0.056-27.274-12.315-27.274-27.376c0-4.043,0.983-8.086,2.922-12.019 c1.184-2.4,0.999-5.25-0.486-7.477L145.01,129.22c-4.056-6.084-5.5-13.384-4.066-20.555c0.93-4.648,2.997-8.881,5.993-12.389 l100.676,151.014c1.482,2.224,4.039,3.486,6.704,3.326c0.501-0.031,0.993-0.093,1.483-0.161c0.101-0.014,0.202-0.03,0.304-0.042 c15.048,0.056,27.274,12.315,27.274,27.376c0,4.042-0.983,8.086-2.922,12.018c-1.184,2.4-0.999,5.25,0.486,7.477l50.526,75.79 c1.896,2.846,5.479,4.046,8.708,2.922c12.368-4.31,25.031-4.669,37.637-1.069c22.882,6.534,40.68,26.535,44.289,49.772 C425.303,445.314,418.626,465.326,403.781,479.606z"></path> </g> </g> <g> <g> <path d="M256.087,270.292H256c-4.142,0-7.456,3.358-7.456,7.5s3.401,7.5,7.543,7.5c4.142,0,7.5-3.358,7.5-7.5 S260.229,270.292,256.087,270.292z"></path> </g> </g> <g> </g> <g> </g> <g> </g> <g> </g> <g> </g> <g> </g> <g> </g> <g> </g> <g> </g> <g> </g> <g> </g> <g> </g> <g> </g> <g> </g> <g> </g> </svg> 