<?xml version="1.0" encoding="UTF-8"?> <svg xmlns="http://www.w3.org/2000/svg" xmlns:xlink="http://www.w3.org/1999/xlink" xmlns:svgjs="http://svgjs.com/svgjs" version="1.1" width="512" height="512" x="0" y="0" viewBox="0 0 4000 4000" style="enable-background:new 0 0 512 512" xml:space="preserve" class=""><g transform="matrix(1.32,0,0,1.32,-640.0000488281248,-639.9998046874998)"><g xmlns="http://www.w3.org/2000/svg" fill="rgb(0,0,0)"><path d="m2427.659 2294.118h148.322c54.059 0 98.039-43.981 98.039-98.039v-539.216c0-27.074-21.947-49.02-49.02-49.02s-49.02 21.946-49.02 49.02v539.216h-259.287c-19.412 0-36.995 11.456-44.84 29.21-7.843 17.757-4.47 38.47 8.602 52.819l482.456 529.612c9.068 9.954 21.832 15.738 35.294 15.998.315.006.631.009.945.009 13.124 0 25.716-5.266 34.938-14.636l521.155-529.609c13.856-14.083 17.907-35.104 10.273-53.325s-25.458-30.078-45.212-30.078h-278.637v-539.216c0-27.074-21.947-49.02-49.02-49.02-27.072 0-49.02 21.946-49.02 49.02v539.216c0 54.058 43.98 98.039 98.039 98.039h161.626l-402.771 409.306z" fill="#000000" data-original="#000000" class=""></path><path d="m1840.686 1387.255c-27.072 0-49.02 21.946-49.02 49.02v546.389c-70.787 21.147-122.549 86.823-122.549 164.396 0 94.604 76.966 171.569 171.569 171.569s171.569-76.964 171.569-171.569c0-77.572-51.762-143.249-122.549-164.396v-546.389c0-27.074-21.947-49.02-49.02-49.02zm73.53 759.804c0 40.543-32.984 73.529-73.529 73.529s-73.529-32.986-73.529-73.529 32.984-73.53 73.529-73.53 73.529 32.986 73.529 73.53z" fill="#000000" data-original="#000000" class=""></path><path d="m3458.333 2637.255h-220.588c-27.073 0-49.02 21.946-49.02 49.02v196.079h-759.804v-196.079c0-27.074-21.947-49.02-49.02-49.02h-220.588c-27.072 0-49.02 21.946-49.02 49.02v490.196c0 27.074 21.947 49.02 49.02 49.02h1299.02c27.073 0 49.02-21.946 49.02-49.02v-490.196c0-27.074-21.947-49.02-49.02-49.02zm-49.019 490.196h-1200.98v-392.157h122.549v196.078c0 27.074 21.947 49.02 49.02 49.02h857.843c27.072 0 49.02-21.946 49.02-49.02v-196.078h122.549v392.157z" fill="#000000" data-original="#000000" class=""></path><path d="m1399.51 2098.039c0-27.074-21.947-49.02-49.02-49.02h-686.274c-27.072 0-49.02 21.946-49.02 49.02s21.947 49.02 49.02 49.02h686.275c27.072 0 49.019-21.946 49.019-49.02z" fill="#000000" data-original="#000000" class=""></path><path d="m1399.51 1803.922c0-27.074-21.947-49.02-49.02-49.02h-808.823c-27.072 0-49.02 21.946-49.02 49.02s21.947 49.02 49.02 49.02h808.824c27.072-.001 49.019-21.947 49.019-49.02z" fill="#000000" data-original="#000000" class=""></path><path d="m1399.51 2392.157c0-27.074-21.947-49.02-49.02-49.02h-539.215c-27.072 0-49.02 21.946-49.02 49.02s21.947 49.02 49.02 49.02h539.216c27.072 0 49.019-21.946 49.019-49.02z" fill="#000000" data-original="#000000" class=""></path><path d="m1980.967 3142.252c-30.126 4.207-60.717 6.916-91.388 8.389l-.373-145.865c-.069-27.032-22.001-48.894-49.017-48.894h-.129c-27.072.069-48.963 22.072-48.894 49.145l.371 145.588c-344.178-16.886-658.219-210.035-827.943-512.819-13.238-23.615-43.115-32.029-66.729-18.792-23.617 13.239-32.03 43.114-18.792 66.729 195.1 348.053 563.951 564.267 962.613 564.267 51.476 0 103.235-3.584 153.84-10.648 26.812-3.746 45.513-28.516 41.769-55.33-3.744-26.81-28.513-45.504-55.328-41.77z" fill="#000000" data-original="#000000" class=""></path><path d="m958.371 1240.199c10.234 0 20.557-3.195 29.375-9.807l58.824-44.118 86.324 115.1c-63.302 53.04-120.791 113.098-170.698 178.772-16.379 21.554-12.185 52.308 9.371 68.688 21.551 16.378 52.306 12.183 68.689-9.371 181.934-239.41 453.674-381.915 751.411-396.051v96.784c0 27.074 21.947 49.02 49.02 49.02s49.02-21.946 49.02-49.02v-96.784c223.785 10.625 432.832 93.812 600.143 236.142l-144.609 144.608c-19.144 19.142-19.144 50.181 0 69.323 9.571 9.571 22.116 14.358 34.661 14.358s25.09-4.787 34.661-14.358l146.848-146.848c28.133 29.084 54.781 60.025 79.706 92.826 9.645 12.692 24.269 19.364 39.065 19.364 10.337 0 20.758-3.258 29.623-9.993 21.555-16.381 25.75-47.135 9.371-68.688-100.699-132.512-232.185-242.244-380.245-317.338-96.337-48.86-197.437-82.745-302.167-101.455v-213.314h98.039c27.072 0 49.02-21.946 49.02-49.02s-21.947-49.02-49.02-49.02h-588.235c-27.072 0-49.02 21.946-49.02 49.02s21.947 49.02 49.02 49.02h98.039v213.313c-104.731 18.709-205.829 52.595-302.166 101.455-45.621 23.138-89.651 49.589-131.709 78.957l-85.735-114.312 58.826-44.119c21.658-16.243 26.048-46.97 9.803-68.626-16.243-21.661-46.97-26.048-68.627-9.805l-196.078 147.059c-21.659 16.243-26.048 46.97-9.803 68.626 9.63 12.841 24.348 19.612 39.253 19.612zm784.276-392.16h196.078v200.309c-32.387-2.815-65.077-4.231-98.039-4.231s-65.652 1.415-98.039 4.231z" fill="#000000" data-original="#000000" class=""></path></g></g></svg> 