<?xml version="1.0" encoding="UTF-8"?> <!-- Generator: Adobe Illustrator 19.0.0, SVG Export Plug-In . SVG Version: 6.00 Build 0) --> <svg xmlns="http://www.w3.org/2000/svg" xmlns:xlink="http://www.w3.org/1999/xlink" version="1.1" id="Capa_1" x="0px" y="0px" viewBox="0 0 512 512" style="enable-background:new 0 0 512 512;" xml:space="preserve"> <g> <g> <path d="M505.352,276.357c-3.86-1.452-8.203-0.084-10.536,3.311c-15.286,22.247-35.82,41.114-59.382,54.559 c-23.306,13.299-49.717,21.394-76.378,23.408c-4.932,0.372-8.629,4.673-8.256,9.606c0.373,4.931,4.668,8.637,9.606,8.256 c29.291-2.214,58.305-11.104,83.906-25.712c15.569-8.884,29.936-19.923,42.572-32.633c-2.277,8.519-5.028,16.93-8.243,25.185 c-23.072,59.234-67.83,105.937-126.029,131.508c-58.2,25.57-122.873,26.945-182.107,3.874 c-59.234-23.072-105.937-67.83-131.508-126.029c-25.57-58.199-26.946-122.872-3.874-182.106 c4.509-11.575,9.932-22.841,16.119-33.485c2.485-4.277,1.033-9.759-3.243-12.244c-4.277-2.488-9.759-1.034-12.244,3.243 c-6.65,11.442-12.479,23.549-17.322,35.985c-24.81,63.692-23.33,133.233,4.166,195.814 c27.495,62.58,77.714,110.706,141.407,135.514C194.132,506.148,225.568,512,256.958,512c34.97,0,69.882-7.265,102.861-21.754 c62.58-27.495,110.706-77.714,135.514-141.406c7.92-20.332,13.223-41.545,15.761-63.05 C511.576,281.7,509.206,277.807,505.352,276.357z"></path> </g> </g> <g> <g> <path d="M330.247,357.5c-17.224-1.468-34.203-5.424-50.464-11.758c-93.093-36.261-139.33-141.498-103.071-234.592 c15.766-40.476,45.558-73.959,83.888-94.281c3.639-1.929,5.493-6.089,4.495-10.085C264.097,2.797,260.515,0,256.405,0 c-0.006,0-0.013,0-0.02,0c-38.492,0.084-77.204,9.107-111.949,26.091C109.532,43.153,78.549,68.3,54.834,98.814 c-3.036,3.906-2.33,9.533,1.576,12.568c3.905,3.036,9.532,2.331,12.569-1.576c22.048-28.369,50.861-51.752,83.324-67.621 c22.054-10.781,45.822-18.113,70.068-21.709c-27.743,21.846-49.373,50.854-62.35,84.172 c-39.846,102.297,10.963,217.94,113.26,257.785c17.859,6.957,36.513,11.302,55.445,12.915c0.259,0.022,0.515,0.033,0.771,0.033 c4.602,0,8.516-3.527,8.914-8.196C338.831,362.256,335.176,357.92,330.247,357.5z"></path> </g> </g> <g> </g> <g> </g> <g> </g> <g> </g> <g> </g> <g> </g> <g> </g> <g> </g> <g> </g> <g> </g> <g> </g> <g> </g> <g> </g> <g> </g> <g> </g> </svg> 