<?xml version="1.0" encoding="UTF-8"?> <svg xmlns="http://www.w3.org/2000/svg" id="Capa_1" height="512" viewBox="0 0 512 512" width="512"><path d="m485.421 64.892h-458.842c-14.655 0-26.579 11.923-26.579 26.579v221.442c0 4.14 3.355 7.495 7.495 7.495s7.495-3.355 7.495-7.495v-71.336h482.02v178.953c0 6.39-5.199 11.589-11.589 11.589h-458.842c-6.39 0-11.589-5.199-11.589-11.589v-72.718c0-4.14-3.355-7.495-7.495-7.495s-7.495 3.354-7.495 7.494v72.718c0 14.656 11.924 26.579 26.579 26.579h458.842c14.655 0 26.579-11.924 26.579-26.579v-329.058c0-14.656-11.924-26.579-26.579-26.579zm-470.431 161.694v-135.115c0-6.39 5.199-11.589 11.589-11.589h23.303l33.479 68.128c1.608 3.271 1.608 7.178-.001 10.45l-33.478 68.127h-34.892zm51.595 0 30.229-61.515c3.644-7.412 3.644-16.263.001-23.674l-30.23-61.516h54.143l33.479 68.127c1.608 3.272 1.608 7.179 0 10.451l-33.479 68.127zm70.845 0 30.23-61.516c3.642-7.411 3.642-16.262 0-23.673l-30.23-61.516h58.614l33.479 68.127c1.608 3.272 1.608 7.179 0 10.451l-33.479 68.127zm146.162 0 30.23-61.516c3.642-7.411 3.642-16.262 0-23.673l-8.673-17.649c-1.826-3.714-6.317-5.245-10.032-3.422-3.715 1.826-5.247 6.317-3.422 10.032l8.673 17.649c1.608 3.272 1.608 7.179 0 10.451l-33.479 68.127h-54.143l30.231-61.516c3.642-7.411 3.642-16.262 0-23.673l-30.231-61.516h54.143l9.294 18.912c1.828 3.715 6.319 5.247 10.032 3.422 3.715-1.826 5.246-6.318 3.422-10.032l-6.045-12.301h58.615l33.478 68.127c1.608 3.272 1.608 7.179 0 10.451l-33.478 68.127zm75.317 0 30.23-61.516c3.642-7.411 3.642-16.262 0-23.673l-30.23-61.516h54.143l33.479 68.127c1.608 3.272 1.608 7.179 0 10.451l-33.479 68.127zm138.101 0h-67.256l30.23-61.516c3.642-7.411 3.642-16.262 0-23.673l-30.23-61.516h55.667c6.39 0 11.589 5.199 11.589 11.589z"></path><path d="m382.127 264.23h-37.832c-4.14 0-7.495 3.355-7.495 7.495v59.974.097 70.173c0 1.994.794 3.905 2.207 5.312 1.405 1.398 3.306 2.183 5.289 2.183h.033c.348-.002 34.93-.154 44.406-.154 23.464 0 42.553-19.089 42.553-42.553 0-16.554-9.508-30.92-23.343-37.952 7.167-6.828 11.648-16.453 11.648-27.111-.001-20.658-16.808-37.464-37.466-37.464zm-30.337 14.99h30.337c12.392 0 22.474 10.082 22.474 22.474s-10.082 22.474-22.474 22.474c-2.77 0-8.013.015-13.734.035h-16.603zm64.507 87.537c0 15.198-12.365 27.563-27.563 27.563-6.745 0-26.125.077-36.944.122v-55.183c4.695-.02 10.927-.045 16.674-.065h20.27c15.198 0 27.563 12.365 27.563 27.563z"></path><path d="m133.595 394.474c-15.384 0-30.275-6.297-39.833-16.844-2.781-3.068-7.52-3.299-10.587-.521-3.067 2.779-3.301 7.519-.521 10.587 12.352 13.631 31.395 21.769 50.941 21.769 22.812 0 42.655-14.791 46.158-34.405 1.592-8.919-.374-17.684-5.687-25.347-5.606-8.086-14.544-14.435-26.567-18.869-15.418-5.688-29.659-11.782-35.067-14.139-1.459-.635-2.668-1.378-3.597-2.209-4.829-4.321-6.839-10.826-5.378-17.401 1.703-7.661 7.628-13.546 16.256-16.145 23.12-6.968 43.599 9.619 43.962 9.916 3.17 2.649 7.886 2.237 10.545-.927 2.663-3.169 2.254-7.897-.914-10.561-1.081-.908-26.826-22.144-57.916-12.782-13.764 4.147-23.695 14.332-26.565 27.247-2.615 11.762 1.224 23.955 10.014 31.822 2.121 1.898 4.681 3.508 7.607 4.782 5.526 2.408 20.081 8.639 35.866 14.46 16.456 6.07 24.724 16.101 22.685 27.519-1.91 10.687-13.563 22.048-31.402 22.048z"></path><path d="m211.113 264.23c-4.14 0-7.495 3.355-7.495 7.495v89.622c0 16.693 7.815 29.8 23.892 40.072 8.331 5.324 17.763 8.03 28.031 8.045h.086c8.921 0 17.269-1.926 24.811-5.724 18.756-9.446 28.67-24.137 28.67-42.487v-89.528c0-4.14-3.355-7.495-7.495-7.495s-7.495 3.355-7.495 7.495v89.528c0 12.66-6.68 22.179-20.422 29.1-5.432 2.734-11.511 4.121-18.07 4.121-.021 0-.043 0-.063 0-7.37-.01-14.092-1.924-19.982-5.687-11.897-7.6-16.973-15.807-16.973-27.44v-89.622c0-4.14-3.355-7.495-7.495-7.495z"></path></svg> 