<?xml version="1.0" encoding="UTF-8"?> <svg xmlns="http://www.w3.org/2000/svg" id="Capa_1" height="512" viewBox="0 0 512 512" width="512"><g><path d="m372.5 0h-233c-24.813 0-45 20.187-45 45v203.316c0 4.142 3.358 7.5 7.5 7.5s7.5-3.358 7.5-7.5v-203.316c0-16.542 13.458-30 30-30h233c16.542 0 30 13.458 30 30v51.321c0 4.142 3.357 7.5 7.5 7.5s7.5-3.358 7.5-7.5v-51.321c0-24.813-20.187-45-45-45z"></path><path d="m286.25 497h-146.75c-16.542 0-30-13.458-30-30v-183.684c0-4.142-3.358-7.5-7.5-7.5s-7.5 3.358-7.5 7.5v183.684c0 24.813 20.187 45 45 45h146.75c4.143 0 7.5-3.358 7.5-7.5s-3.357-7.5-7.5-7.5z"></path><path d="m410 123c-4.143 0-7.5 3.358-7.5 7.5v336.5c0 16.542-13.458 30-30 30h-51.25c-4.143 0-7.5 3.358-7.5 7.5s3.357 7.5 7.5 7.5h51.25c24.813 0 45-20.187 45-45v-336.5c0-4.142-3.357-7.5-7.5-7.5z"></path><path d="m268.5 30h-50c-4.142 0-7.5 3.358-7.5 7.5s3.358 7.5 7.5 7.5h50c4.143 0 7.5-3.358 7.5-7.5s-3.357-7.5-7.5-7.5z"></path><path d="m368.5 376c4.143 0 7.5-3.358 7.5-7.5v-54c0-4.142-3.357-7.5-7.5-7.5s-7.5 3.358-7.5 7.5v46.5h-46.5c-4.143 0-7.5 3.358-7.5 7.5s3.357 7.5 7.5 7.5z"></path><path d="m136 368.5c0 4.142 3.358 7.5 7.5 7.5h54c4.142 0 7.5-3.358 7.5-7.5s-3.358-7.5-7.5-7.5h-46.5v-46.5c0-4.142-3.358-7.5-7.5-7.5s-7.5 3.358-7.5 7.5z"></path><path d="m197.5 136h-54c-4.142 0-7.5 3.358-7.5 7.5v54c0 4.142 3.358 7.5 7.5 7.5s7.5-3.358 7.5-7.5v-46.5h46.5c4.142 0 7.5-3.358 7.5-7.5s-3.358-7.5-7.5-7.5z"></path><path d="m368.5 205c4.143 0 7.5-3.358 7.5-7.5v-54c0-4.142-3.357-7.5-7.5-7.5h-54c-4.143 0-7.5 3.358-7.5 7.5s3.357 7.5 7.5 7.5h46.5v46.5c0 4.142 3.357 7.5 7.5 7.5z"></path><path d="m168.5 177.75v64.5c0 4.142 3.358 7.5 7.5 7.5h41.5c4.142 0 7.5-3.358 7.5-7.5s-3.358-7.5-7.5-7.5h-34v-49.5h49.5v34c0 4.142 3.358 7.5 7.5 7.5s7.5-3.358 7.5-7.5v-41.5c0-4.142-3.358-7.5-7.5-7.5h-64.5c-4.142 0-7.5 3.358-7.5 7.5z"></path><path d="m343.5 334.25v-64.5c0-4.142-3.357-7.5-7.5-7.5h-64.5c-4.143 0-7.5 3.358-7.5 7.5v41.5c0 4.142 3.357 7.5 7.5 7.5s7.5-3.358 7.5-7.5v-34h49.5v49.5h-34c-4.143 0-7.5 3.358-7.5 7.5s3.357 7.5 7.5 7.5h41.5c4.143 0 7.5-3.358 7.5-7.5z"></path><path d="m240.5 262.25h-64.5c-4.142 0-7.5 3.358-7.5 7.5v64.5c0 4.142 3.358 7.5 7.5 7.5h64.5c4.142 0 7.5-3.358 7.5-7.5v-64.5c0-4.142-3.358-7.5-7.5-7.5zm-7.5 64.5h-49.5v-49.5h49.5z"></path><path d="m202.75 202.5c-4.142 0-7.5 3.358-7.5 7.5s3.358 7.5 7.5 7.5h11c4.142 0 7.5-3.358 7.5-7.5s-3.358-7.5-7.5-7.5z"></path><path d="m202.5 310h11c4.142 0 7.5-3.358 7.5-7.5s-3.358-7.5-7.5-7.5h-11c-4.142 0-7.5 3.358-7.5 7.5s3.358 7.5 7.5 7.5z"></path><path d="m309.5 310c4.143 0 7.5-3.358 7.5-7.5s-3.357-7.5-7.5-7.5h-11c-4.143 0-7.5 3.358-7.5 7.5s3.357 7.5 7.5 7.5z"></path><path d="m264 177.75v22.526c0 4.142 3.357 7.5 7.5 7.5s7.5-3.358 7.5-7.5v-15.026h14.979c4.143 0 7.5-3.358 7.5-7.5s-3.357-7.5-7.5-7.5h-22.479c-4.143 0-7.5 3.358-7.5 7.5z"></path><path d="m329 219.724v15.026h-14.979c-4.143 0-7.5 3.358-7.5 7.5s3.357 7.5 7.5 7.5h22.479c4.143 0 7.5-3.358 7.5-7.5v-22.526c0-4.142-3.357-7.5-7.5-7.5s-7.5 3.358-7.5 7.5z"></path><path d="m284.446 229.553c1.465 1.464 3.385 2.197 5.304 2.197s3.839-.732 5.304-2.197l28.5-28.5c2.929-2.929 2.929-7.678 0-10.606-2.93-2.929-7.678-2.929-10.607 0l-28.5 28.5c-2.929 2.928-2.929 7.678-.001 10.606z"></path><circle cx="293.5" cy="37.5" r="7.5"></circle></g></svg> 