<?xml version="1.0" encoding="UTF-8"?> <!-- Generator: Adobe Illustrator 19.0.0, SVG Export Plug-In . SVG Version: 6.00 Build 0) --> <svg xmlns="http://www.w3.org/2000/svg" xmlns:xlink="http://www.w3.org/1999/xlink" version="1.1" id="Layer_1" x="0px" y="0px" viewBox="0 0 512 512" style="enable-background:new 0 0 512 512;" xml:space="preserve"> <g> <g> <path d="M235.057,128.398c-5.263,0-10.729,2.024-10.729,6.882v55.869h-50.403v-55.869c0-4.857-5.263-6.882-10.729-6.882 c-5.263,0-10.729,2.024-10.729,6.882v134.004c0,4.656,5.466,7.085,10.729,7.085c5.466,0,10.729-2.429,10.729-7.085v-61.131h50.403 v61.131c0,4.656,5.466,7.085,10.729,7.085c5.466,0,10.729-2.429,10.729-7.085V135.279 C245.786,130.422,240.523,128.398,235.057,128.398z"></path> </g> </g> <g> <g> <path d="M317.851,128.398h-35.828c-5.668,0-9.514,3.239-9.514,6.882v134.207c0,3.644,3.846,6.883,9.514,6.883h35.828 c25.708,0,45.546-12.348,45.546-45.141v-57.691C363.396,140.745,343.558,128.398,317.851,128.398z M341.94,231.227 c0,17.814-8.907,26.114-24.089,26.114h-23.885V147.425v-0.001h23.885c15.182,0,24.089,8.3,24.089,26.112V231.227z"></path> </g> </g> <g> <g> <path d="M503.565,291.884c-4.659,0-8.435,3.775-8.435,8.435v42.291H16.869V131.626c0-4.659-3.776-8.435-8.435-8.435 c-4.658,0-8.435,3.775-8.435,8.435v219.418c0,4.658,3.776,8.435,8.435,8.435h495.131c4.659,0,8.435-3.776,8.435-8.435v-50.726 C512,295.66,508.224,291.884,503.565,291.884z"></path> </g> </g> <g> <g> <path d="M503.565,42.219H8.435C3.776,42.219,0,45.995,0,50.654v47.234c0,4.659,3.776,8.435,8.435,8.435 c4.658,0,8.435-3.775,8.435-8.435V59.088h478.261V266.58c0,4.659,3.775,8.435,8.435,8.435S512,271.24,512,266.58V50.654 C512,45.995,508.224,42.219,503.565,42.219z"></path> </g> </g> <g> <g> <path d="M145.546,410.317H31.604c-4.658,0-8.435,3.775-8.435,8.435s3.776,8.435,8.435,8.435h113.942 c4.658,0,8.435-3.775,8.435-8.435S150.205,410.317,145.546,410.317z"></path> </g> </g> <g> <g> <path d="M480.149,410.317H241.907c-4.658,0-8.435,3.775-8.435,8.435s3.776,8.435,8.435,8.435h238.241 c4.659,0,8.435-3.775,8.435-8.435S484.808,410.317,480.149,410.317z"></path> </g> </g> <g> <g> <path d="M213.918,367.722h-41.424c-4.658,0-8.435,3.775-8.435,8.435v85.19c0,4.659,3.776,8.435,8.435,8.435h41.424 c4.658,0,8.435-3.775,8.435-8.435v-85.19C222.353,371.497,218.576,367.722,213.918,367.722z M205.483,452.911h-24.555v-68.32 h24.555V452.911z"></path> </g> </g> <g> </g> <g> </g> <g> </g> <g> </g> <g> </g> <g> </g> <g> </g> <g> </g> <g> </g> <g> </g> <g> </g> <g> </g> <g> </g> <g> </g> <g> </g> </svg> 