<?xml version="1.0" encoding="UTF-8"?> <svg xmlns="http://www.w3.org/2000/svg" id="Capa_1" height="512" viewBox="0 0 512 512" width="512"><g><path d="m397.409 407.47h-237.48c-4.142 0-7.5 3.358-7.5 7.5s3.358 7.5 7.5 7.5h237.48c15.908 0 28.85-12.947 28.85-28.86v-275.22c0-15.914-12.942-28.86-28.85-28.86h-282.82c-15.908 0-28.85 12.947-28.85 28.86v275.22c0 15.914 12.942 28.86 28.85 28.86h15.34c4.142 0 7.5-3.358 7.5-7.5s-3.358-7.5-7.5-7.5h-15.34c-7.637 0-13.85-6.218-13.85-13.86v-65.401c22.557-25.628 54.865-40.276 89.077-40.276 32.333 0 62.895 13.048 85.189 36.076-14.579 8.732-27.545 20.277-37.86 33.805-2.512 3.294-1.877 8 1.416 10.511 1.358 1.036 2.956 1.537 4.542 1.537 2.26 0 4.494-1.018 5.969-2.953 10.911-14.309 25.15-26.133 41.179-34.195 16.607-8.353 34.52-12.588 53.242-12.588 24.492 0 47.836 7.347 67.766 21.257v52.226c0 7.643-6.213 13.861-13.85 13.861zm-53.916-102.344c-19.112 0-37.478 3.936-54.688 11.682-25.332-27.951-61.077-43.876-98.988-43.876-33.158 0-64.726 12.215-89.077 34.01v-188.552c0-7.643 6.213-13.86 13.85-13.86h282.82c7.637 0 13.85 6.218 13.85 13.86v205.178c-20.463-12.09-43.619-18.442-67.767-18.442z"></path><path d="m338.614 137.111c-30.331 0-55.006 24.675-55.006 55.006s24.676 55.006 55.006 55.006 55.006-24.675 55.006-55.006-24.676-55.006-55.006-55.006zm0 95.012c-22.06 0-40.006-17.947-40.006-40.006s17.947-40.006 40.006-40.006 40.006 17.947 40.006 40.006-17.947 40.006-40.006 40.006z"></path><path d="m482.979 0h-102.36c-16.001 0-29.02 13.019-29.02 29.02s13.019 29.02 29.02 29.02h24.1c4.142 0 7.5-3.358 7.5-7.5s-3.358-7.5-7.5-7.5h-24.1c-7.73 0-14.02-6.29-14.02-14.02s6.29-14.02 14.02-14.02h102.36c7.73 0 14.02 6.29 14.02 14.02v102.37c0 7.725-6.29 14.01-14.02 14.01-7.725 0-14.01-6.285-14.01-14.01v-80.85c0-4.142-3.358-7.5-7.5-7.5h-26.79c-4.142 0-7.5 3.358-7.5 7.5s3.358 7.5 7.5 7.5h19.29v73.35c0 15.996 13.014 29.01 29.01 29.01 16.001 0 29.02-13.014 29.02-29.01v-102.37c0-16.001-13.018-29.02-29.02-29.02z"></path><path d="m131.383 453.967h-73.349v-73.349c0-16-13.017-29.017-29.017-29.017s-29.016 13.017-29.016 29.017v102.365c0 16 13.017 29.017 29.017 29.017h102.366c16 0 29.017-13.017 29.017-29.017s-13.018-29.016-29.018-29.016zm0 43.033h-102.366c-7.729 0-14.017-6.288-14.017-14.017v-102.365c0-7.729 6.288-14.017 14.017-14.017s14.017 6.288 14.017 14.017v80.849c0 4.142 3.358 7.5 7.5 7.5h80.849c7.729 0 14.017 6.288 14.017 14.017s-6.288 14.016-14.017 14.016z"></path><path d="m29.017 160.402c16 0 29.017-13.017 29.017-29.017v-73.348h73.349c16 0 29.017-13.017 29.017-29.017s-13.017-29.017-29.017-29.017h-102.366c-16 0-29.017 13.017-29.017 29.017v102.365c.001 16 13.017 29.017 29.017 29.017zm-14.016-131.382c0-7.729 6.288-14.017 14.017-14.017h102.366c7.729 0 14.017 6.288 14.017 14.017s-6.288 14.017-14.017 14.017h-80.85c-4.142 0-7.5 3.358-7.5 7.5v80.849c0 7.729-6.288 14.017-14.017 14.017s-14.017-6.288-14.017-14.017v-102.366z"></path><path d="m482.981 351.602c-16 0-29.017 13.017-29.017 29.017v73.349h-73.349c-16 0-29.017 13.017-29.017 29.017s13.017 29.015 29.017 29.015h102.366c16 0 29.017-13.017 29.017-29.017v-102.365c0-16-13.017-29.016-29.017-29.016zm14.017 131.381c0 7.729-6.288 14.017-14.017 14.017h-102.366c-7.729 0-14.017-6.288-14.017-14.017s6.288-14.017 14.017-14.017h80.849c4.142 0 7.5-3.358 7.5-7.5v-80.849c0-7.729 6.288-14.017 14.017-14.017s14.017 6.288 14.017 14.017z"></path></g></svg> 