<?xml version="1.0" encoding="UTF-8"?> <svg xmlns="http://www.w3.org/2000/svg" id="Capa_1" height="512" viewBox="0 0 512 512" width="512"><g><path d="m38.938 309.499v-37.499h-15v37.499c0 12.406 10.094 22.5 22.5 22.5h209.064v-15h-209.063c-4.136 0-7.501-3.364-7.501-7.5z"></path><path d="m38.938 22.5c0-4.136 3.365-7.5 7.5-7.5h41.249v-15h-41.248c-12.407 0-22.5 10.094-22.5 22.5v234.499h15v-234.499z"></path><path d="m370.94 22.5v99.749h15v-99.749c0-12.406-10.094-22.5-22.5-22.5h-260.752v15h260.752c4.135 0 7.5 3.364 7.5 7.5z"></path><path d="m488.062 316.999h-42.122v-37.499h-15v52.499h21.504l-74.004 75.766-74.003-75.766h21.503v-179.751h105v112.251h15v-127.251h-135v179.751h-42.121l109.621 112.232z"></path><path d="m385.941 467h76.811v30h-168.624v-30h76.812v-15h-91.812v60h198.624v-60h-91.811z"></path><path d="m340.94 60h15v45h-15z"></path><path d="m340.94 30h15v15h-15z"></path><path d="m400.94 197.248h15v45h-15z"></path><path d="m400.94 167.248h15v15h-15z"></path><path d="m83.938 286.999h15v15h-15z"></path><path d="m53.938 286.999h15v15h-15z"></path><path d="m277.313 166-137.624-82.218v164.435zm-122.624-55.784 93.376 55.784-93.376 55.783z"></path><path d="m355.94 316.999h15v15h-15z"></path><path d="m385.94 316.999h15v15h-15z"></path><path d="m169.689 158.5h15v15h-15z"></path></g></svg> 