<?xml version="1.0" encoding="UTF-8"?> <svg xmlns="http://www.w3.org/2000/svg" id="Layer_1" height="512" viewBox="0 0 512 512" width="512"><g><path d="m484.767 25.554h-457.534c-15.016 0-27.233 12.217-27.233 27.233v335.533c0 15.017 12.217 27.234 27.233 27.234h22.437c4.142 0 7.5-3.358 7.5-7.5s-3.358-7.5-7.5-7.5h-22.437c-6.746 0-12.233-5.488-12.233-12.234v-278.033h392c4.142 0 7.5-3.358 7.5-7.5s-3.358-7.5-7.5-7.5h-392v-42.5c0-6.746 5.488-12.233 12.233-12.233h457.533c6.746 0 12.233 5.488 12.233 12.233v42.5h-54.67c-4.142 0-7.5 3.358-7.5 7.5s3.358 7.5 7.5 7.5h54.671v278.033c0 6.746-5.488 12.234-12.233 12.234h-22.797c-4.142 0-7.5 3.358-7.5 7.5s3.358 7.5 7.5 7.5h22.797c15.017 0 27.233-12.217 27.233-27.234v-335.533c0-15.016-12.217-27.233-27.233-27.233z"></path><path d="m41.877 60.431c-4.142 0-7.5 3.358-7.5 7.5s3.358 7.5 7.5 7.5h30.793c4.142 0 7.5-3.358 7.5-7.5s-3.358-7.5-7.5-7.5z"></path><path d="m107.671 60.431c-4.142 0-7.5 3.358-7.5 7.5s3.358 7.5 7.5 7.5h30.793c4.142 0 7.5-3.358 7.5-7.5s-3.358-7.5-7.5-7.5z"></path><path d="m173.671 60.431c-4.142 0-7.5 3.358-7.5 7.5s3.358 7.5 7.5 7.5h30.793c4.142 0 7.5-3.358 7.5-7.5s-3.358-7.5-7.5-7.5z"></path><path d="m432.33 162.965h-220.722c-4.142 0-7.5 3.358-7.5 7.5s3.358 7.5 7.5 7.5h213.222v293.481h-104.775c-4.142 0-7.5 3.358-7.5 7.5s3.358 7.5 7.5 7.5h112.275c4.142 0 7.5-3.358 7.5-7.5v-308.481c0-4.142-3.358-7.5-7.5-7.5z"></path><path d="m285.25 471.446h-198.08v-293.481h89.642c4.142 0 7.5-3.358 7.5-7.5s-3.358-7.5-7.5-7.5h-97.142c-4.142 0-7.5 3.358-7.5 7.5v308.481c0 4.142 3.358 7.5 7.5 7.5h205.58c4.142 0 7.5-3.358 7.5-7.5s-3.358-7.5-7.5-7.5z"></path><path d="m114.689 250.759h38.248c4.142 0 7.5-3.358 7.5-7.5v-38.248c0-4.142-3.358-7.5-7.5-7.5h-38.248c-4.142 0-7.5 3.358-7.5 7.5v38.248c0 4.142 3.358 7.5 7.5 7.5zm7.5-38.248h23.248v23.248h-23.248z"></path><path d="m397.122 197.511h-38.248c-4.142 0-7.5 3.358-7.5 7.5v38.248c0 4.142 3.358 7.5 7.5 7.5h38.248c4.142 0 7.5-3.358 7.5-7.5v-38.248c0-4.142-3.358-7.5-7.5-7.5zm-7.5 38.248h-23.248v-23.248h23.248z"></path><path d="m114.736 451.335h38.248c4.142 0 7.5-3.358 7.5-7.5v-38.248c0-4.142-3.358-7.5-7.5-7.5h-38.248c-4.142 0-7.5 3.358-7.5 7.5v38.248c0 4.142 3.358 7.5 7.5 7.5zm7.5-38.248h23.248v23.248h-23.248z"></path><path d="m397.217 398.087h-38.248c-4.142 0-7.5 3.358-7.5 7.5v38.248c0 4.142 3.358 7.5 7.5 7.5h38.248c4.142 0 7.5-3.358 7.5-7.5v-38.248c0-4.142-3.358-7.5-7.5-7.5zm-7.5 38.248h-23.248v-23.248h23.248z"></path><path d="m160.531 305.299c0-4.142-3.358-7.5-7.5-7.5h-38.248c-4.142 0-7.5 3.358-7.5 7.5v38.248c0 4.142 3.358 7.5 7.5 7.5h38.248c4.142 0 7.5-3.358 7.5-7.5zm-15 30.748h-23.248v-23.248h23.248z"></path><path d="m404.717 305.299c0-4.142-3.358-7.5-7.5-7.5h-38.248c-4.142 0-7.5 3.358-7.5 7.5v38.248c0 4.142 3.358 7.5 7.5 7.5h38.248c4.142 0 7.5-3.358 7.5-7.5zm-15 30.748h-23.248v-23.248h23.248z"></path><path d="m305.439 317.862-81.514-45.15c-2.323-1.288-5.153-1.25-7.441.099-2.288 1.348-3.692 3.806-3.692 6.461v90.301c0 2.656 1.404 5.113 3.692 6.461 1.174.692 2.49 1.039 3.808 1.039 1.251 0 2.502-.313 3.634-.939l81.514-45.15c2.386-1.322 3.866-3.834 3.866-6.561s-1.481-5.239-3.867-6.561zm-77.648 38.983v-64.845l58.535 32.422z"></path></g></svg> 