<?xml version="1.0" encoding="UTF-8"?> <svg xmlns="http://www.w3.org/2000/svg" id="Capa_1" height="512" viewBox="0 0 512 512" width="512"><g><path d="m466.03 45.2h-368.04c-4.143 0-7.5 3.358-7.5 7.5s3.357 7.5 7.5 7.5h368.04c17.077 0 30.97 13.893 30.97 30.97v329.66c0 17.077-13.893 30.97-30.97 30.97h-420.06c-17.077 0-30.97-13.893-30.97-30.97v-329.66c0-17.077 13.893-30.97 30.97-30.97h22.02c4.143 0 7.5-3.358 7.5-7.5s-3.357-7.5-7.5-7.5h-22.02c-25.348 0-45.97 20.622-45.97 45.97v329.66c0 25.348 20.622 45.97 45.97 45.97h420.06c25.348 0 45.97-20.622 45.97-45.97v-329.66c0-25.348-20.622-45.97-45.97-45.97z"></path><path d="m218.36 323.796c4.979 0 9.957-1.31 14.495-3.93l105.28-60.783c9.076-5.24 14.495-14.626 14.495-25.107s-5.419-19.867-14.495-25.107l-105.28-60.784c-9.077-5.241-19.915-5.242-28.99 0-9.077 5.24-14.496 14.626-14.496 25.107v121.567c0 10.481 5.419 19.867 14.496 25.107 4.538 2.62 9.517 3.93 14.495 3.93zm-13.991-150.604c0-5.058 2.615-9.588 6.996-12.117 2.189-1.264 4.593-1.896 6.995-1.896s4.805.632 6.995 1.896l105.28 60.784c4.38 2.529 6.995 7.059 6.995 12.117s-2.615 9.587-6.995 12.117l-105.28 60.783c-4.381 2.529-9.61 2.528-13.991 0-4.38-2.529-6.995-7.059-6.995-12.117z"></path><path d="m128.203 346.219c-11.95 0-21.672 9.722-21.672 21.672v2.239h-47.211c-6.246 0-12.122 2.435-16.534 6.848-4.428 4.413-6.866 10.291-6.866 16.552 0 12.903 10.497 23.4 23.4 23.4h47.215c.092 11.871 9.774 21.501 21.667 21.501s21.575-9.63 21.667-21.501h206.87c4.143 0 7.5-3.358 7.5-7.5s-3.357-7.5-7.5-7.5h-206.864v-16.8h302.805c4.632 0 8.4 3.768 8.4 8.4 0 2.245-.872 4.351-2.464 5.937-1.588 1.588-3.696 2.463-5.937 2.463h-65.939c-4.143 0-7.5 3.358-7.5 7.5s3.357 7.5 7.5 7.5h65.939c6.246 0 12.122-2.435 16.534-6.848 4.428-4.413 6.866-10.291 6.866-16.553 0-12.903-10.497-23.4-23.4-23.4h-302.804v-2.239c0-11.949-9.722-21.671-21.672-21.671zm-77.283 47.311c0-2.245.872-4.35 2.464-5.937 1.588-1.588 3.696-2.463 5.937-2.463h47.211v16.8h-47.212c-4.632 0-8.4-3.768-8.4-8.4zm83.955 23.23c0 3.679-2.993 6.672-6.672 6.672s-6.672-2.993-6.672-6.672v-48.869c0-3.679 2.993-6.672 6.672-6.672s6.672 2.993 6.672 6.672z"></path></g></svg> 