<?xml version="1.0" encoding="UTF-8"?> <svg xmlns="http://www.w3.org/2000/svg" id="Layer_1" height="512" viewBox="0 0 512 512" width="512" data-name="Layer 1"><path d="m363.387 512a41.275 41.275 0 0 0 41.229-41.229v-429.542a41.275 41.275 0 0 0 -41.229-41.229h-214.775a41.275 41.275 0 0 0 -41.228 41.229v429.542a41.275 41.275 0 0 0 41.228 41.229zm-240-41.229v-429.542a25.256 25.256 0 0 1 25.225-25.229h214.775a25.257 25.257 0 0 1 25.229 25.229v429.542a25.258 25.258 0 0 1 -25.229 25.229h-214.775a25.257 25.257 0 0 1 -25.228-25.229zm132.613-47.337a30 30 0 1 0 30 30 30.034 30.034 0 0 0 -30-30zm0 44a14 14 0 1 1 14-14 14.016 14.016 0 0 1 -14 14zm-44-421.568a8 8 0 0 1 8-8h72a8 8 0 0 1 0 16h-72a8 8 0 0 1 -8-8zm44 302.419a92.285 92.285 0 1 0 -92.285-92.285 92.39 92.39 0 0 0 92.285 92.285zm0-168.57a76.285 76.285 0 1 1 -76.285 76.285 76.372 76.372 0 0 1 76.285-76.285zm-25.074 124.5a8 8 0 0 0 8 0l71.508-41.285a8 8 0 0 0 0-13.856l-71.508-41.285a8 8 0 0 0 -12 6.928v82.57a8 8 0 0 0 4 6.926zm12-75.642 47.508 27.427-47.508 27.429z"></path></svg> 