<?xml version="1.0" encoding="UTF-8"?> <svg xmlns="http://www.w3.org/2000/svg" id="Capa_1" height="512" viewBox="0 0 507.938 507.938" width="512"><g><g><path d="m485.596 23.665h-463.255c-12.318 0-22.341 10.022-22.341 22.341v256.274c0 4.11 3.33 7.44 7.44 7.44s7.44-3.33 7.44-7.44v-256.274c0-4.113 3.346-7.459 7.46-7.459h463.255c4.113 0 7.46 3.346 7.46 7.459v316.076c0 4.113-3.346 7.46-7.46 7.46h-290.3c-4.054 0-7.864 1.578-10.73 4.443l-95.311 95.311c-.109.11-.139.141-.32.063-.183-.075-.183-.117-.183-.272v-84.371c0-8.368-6.808-15.176-15.176-15.176h-51.234c-4.113 0-7.46-3.346-7.46-7.46v-25.078c0-4.11-3.33-7.44-7.44-7.44s-7.441 3.33-7.441 7.44v25.078c0 12.318 10.023 22.341 22.341 22.341h51.235c.163 0 .295.132.295.295v84.371c0 6.16 3.678 11.664 9.368 14.021 5.733 2.376 12.216 1.032 16.539-3.289l95.311-95.311c.055-.056.13-.086.207-.086h290.3c12.318 0 22.341-10.023 22.341-22.341v-316.075c.001-12.319-10.022-22.341-22.341-22.341z"></path><path d="m167.887 258.792 30.562 30.082c3.779 3.717 9.926 3.719 13.703.005l41.817-41.094 41.815 41.093c3.78 3.716 9.927 3.715 13.705-.005l30.562-30.082c3.893-3.832 3.893-10.098-.007-13.934l-41.549-40.83 41.571-40.854c3.87-3.804 3.869-10.023 0-13.826l-30.644-30.114c-3.779-3.712-9.926-3.712-13.698 0l-7.796 7.662c-2.931 2.88-2.972 7.591-.092 10.522 2.881 2.932 7.592 2.972 10.522.092l4.214-4.143 23.297 22.895-42.198 41.47c-1.679 1.649-2.641 3.944-2.641 6.297s.962 4.648 2.64 6.297l42.237 41.508-23.278 22.913-42.478-41.746c-3.411-3.349-8.96-3.347-12.372.002l-42.475 41.742-23.278-22.913 42.236-41.508c1.679-1.649 2.641-3.944 2.641-6.297s-.962-4.648-2.64-6.297l-42.199-41.471 23.297-22.894 42.421 41.689c3.411 3.349 8.96 3.347 12.372-.002l13.03-12.805c2.931-2.88 2.972-7.591.092-10.522-2.881-2.931-7.59-2.97-10.522-.092l-8.785 8.635-41.754-41.033c-3.776-3.715-9.924-3.715-13.701-.003l-30.644 30.114c-3.87 3.804-3.869 10.023 0 13.826l41.571 40.854-41.551 40.832c-3.887 3.827-3.903 10.094-.003 13.935z"></path></g></g></svg> 