<?xml version="1.0" encoding="UTF-8"?> <svg xmlns="http://www.w3.org/2000/svg" id="Capa_1" height="512" viewBox="0 0 511.99 511.99" width="512"><g><g><path d="m71.113 376.448h-43.203c-7.119 0-12.91-5.791-12.91-12.91v-292.733c0-7.119 5.791-12.91 12.91-12.91h284.572c4.143 0 7.5-3.357 7.5-7.5s-3.357-7.5-7.5-7.5h-284.572c-15.389 0-27.91 12.52-27.91 27.91v292.732c0 15.39 12.521 27.91 27.91 27.91h43.203c4.143 0 7.5-3.357 7.5-7.5s-3.357-7.499-7.5-7.499z"></path><path d="m509.792 431.951-15.022-15.014c5.343-6.54 4.968-16.224-1.128-22.32l-12.088-12.088c-6.097-6.095-15.776-6.472-22.317-1.132l-16.181-16.173c14.88-21.647 23.603-47.84 23.603-76.035 0-35.001-13.437-66.92-35.417-90.881v-127.503c0-15.39-12.521-27.91-27.91-27.91h-53.822c-4.143 0-7.5 3.357-7.5 7.5s3.357 7.5 7.5 7.5h53.822c7.119 0 12.91 5.791 12.91 12.91v113.457c-23.062-18.533-52.332-29.642-84.152-29.642-26.863 0-51.91 7.917-72.938 21.532l-89.107-53.799c-6.181-3.731-13.623-3.84-19.911-.293-6.287 3.548-10.041 9.977-10.041 17.196v36.368c0 4.143 3.357 7.5 7.5 7.5s7.5-3.357 7.5-7.5v-36.368c0-2.501 1.688-3.724 2.414-4.133.726-.41 2.646-1.223 4.784.07l83.785 50.587c-26.411 22.006-44.294 53.914-47.885 89.969l-35.9 21.675c-2.141 1.292-4.06.478-4.785.07-.726-.41-2.413-1.633-2.413-4.134v-80.711c0-4.143-3.357-7.5-7.5-7.5s-7.5 3.357-7.5 7.5v80.711c0 7.22 3.754 13.648 10.041 17.196 3.057 1.726 6.387 2.586 9.712 2.586 3.515 0 7.023-.961 10.198-2.878l27.558-16.638c.989 30.695 12.211 59.612 32.04 82.819h-121.501c-4.143 0-7.5 3.357-7.5 7.5s3.357 7.5 7.5 7.5h136.465c24.359 20.906 55.045 32.311 87.484 32.31 28.192 0 54.382-8.721 76.028-23.598l16.139 16.14c-6.064 6.527-5.938 16.761.411 23.114l12.088 12.088c3.249 3.248 7.517 4.873 11.785 4.873 4.075 0 8.14-1.5 11.329-4.461l14.986 14.986c1.465 1.464 3.385 2.196 5.304 2.196s3.839-.732 5.304-2.196c2.929-2.93 2.929-7.678 0-10.607l-14.964-14.962 13.724-13.724 14.965 14.956c1.464 1.464 3.383 2.195 5.302 2.195 1.92 0 3.84-.732 5.305-2.198 2.927-2.93 2.926-7.679-.004-10.606zm-262.251-58.214c-22.583-22.583-35.021-52.609-35.021-84.548 0-65.931 53.638-119.568 119.568-119.568s119.569 53.638 119.569 119.568-53.636 119.568-119.567 119.568c-31.939 0-61.965-12.436-84.549-35.02zm186.272 3.457 14.757 14.749-13.728 13.729-14.753-14.754c4.895-4.241 9.483-8.829 13.724-13.724zm13.551 63.7-12.088-12.087c-.649-.649-.649-1.708-.001-2.356l33.316-33.314c.324-.325.751-.487 1.177-.487.427 0 .854.162 1.178.487l12.088 12.088c.649.649.649 1.705 0 2.354l-33.315 33.315c-.65.651-1.707.649-2.355 0z"></path><path d="m331.33 192.064c-53.555 0-97.125 43.57-97.125 97.125 0 25.943 10.103 50.334 28.447 68.679s42.735 28.447 68.678 28.446c25.943 0 50.334-10.103 68.679-28.447s28.447-42.734 28.446-68.678c0-53.555-43.57-97.125-97.125-97.125zm-27.955 19.905 28.997 17.507c2.513 1.518 2.783 3.953 2.783 4.931-.001.975-.272 3.405-2.781 4.918l-83.161 50.207c0-.115-.008-.228-.008-.343 0-35.473 22.608-65.758 54.17-77.22zm86.026 135.291c-15.511 15.512-36.135 24.054-58.071 24.054s-42.56-8.542-58.071-24.054c-11.465-11.465-19.11-25.728-22.324-41.246l89.189-53.846c6.279-3.787 10.029-10.425 10.032-17.757.003-7.335-3.746-13.98-10.028-17.776l-15.378-9.284c2.174-.173 4.364-.287 6.581-.287 45.284 0 82.125 36.841 82.125 82.125-.001 21.936-8.543 42.559-24.055 58.071z"></path><path d="m57.458 78.527h-16.648c-4.143 0-7.5 3.357-7.5 7.5s3.357 7.5 7.5 7.5h16.648c4.143 0 7.5-3.357 7.5-7.5s-3.357-7.5-7.5-7.5z"></path><path d="m107.404 78.527c-4.143 0-7.5 3.357-7.5 7.5s3.357 7.5 7.5 7.5h16.648c4.143 0 7.5-3.357 7.5-7.5s-3.357-7.5-7.5-7.5z"></path><path d="m173.999 78.527c-4.143 0-7.5 3.357-7.5 7.5s3.357 7.5 7.5 7.5h16.648c4.143 0 7.5-3.357 7.5-7.5s-3.357-7.5-7.5-7.5z"></path><path d="m240.594 78.527c-4.143 0-7.5 3.357-7.5 7.5s3.357 7.5 7.5 7.5h16.648c4.143 0 7.5-3.357 7.5-7.5s-3.357-7.5-7.5-7.5z"></path><path d="m299.688 86.027c0 4.143 3.357 7.5 7.5 7.5h16.648c4.143 0 7.5-3.357 7.5-7.5s-3.357-7.5-7.5-7.5h-16.648c-4.142 0-7.5 3.357-7.5 7.5z"></path><path d="m390.432 93.527c4.143 0 7.5-3.357 7.5-7.5s-3.357-7.5-7.5-7.5h-16.648c-4.143 0-7.5 3.357-7.5 7.5s3.357 7.5 7.5 7.5z"></path><path d="m57.458 340.815h-16.648c-4.143 0-7.5 3.357-7.5 7.5s3.357 7.5 7.5 7.5h16.648c4.143 0 7.5-3.357 7.5-7.5s-3.357-7.5-7.5-7.5z"></path><path d="m107.404 355.815h16.648c4.143 0 7.5-3.357 7.5-7.5s-3.357-7.5-7.5-7.5h-16.648c-4.143 0-7.5 3.357-7.5 7.5s3.358 7.5 7.5 7.5z"></path><path d="m190.647 355.815c4.143 0 7.5-3.357 7.5-7.5s-3.357-7.5-7.5-7.5h-16.648c-4.143 0-7.5 3.357-7.5 7.5s3.357 7.5 7.5 7.5z"></path></g></g></svg> 