<?xml version="1.0" encoding="UTF-8"?> <svg xmlns="http://www.w3.org/2000/svg" viewBox="-43 0 512 512.00003"><path d="m399.832031 78.789062h-77.433593v-49.941406c0-15.902344-12.945313-28.847656-28.847657-28.847656h-264.703125c-15.910156 0-28.847656 12.945312-28.847656 28.847656v15.03125c0 4.199219 3.390625 7.589844 7.589844 7.589844 4.191406 0 7.59375-3.390625 7.59375-7.589844v-15.03125c0-7.53125 6.121094-13.664062 13.664062-13.664062h264.703125c7.53125 0 13.664063 6.132812 13.664063 13.664062v261.648438h-56.367188c-15.910156 0-28.847656 12.945312-28.847656 28.847656v60.902344h-22.925781c-4.191407 0-7.589844 3.398437-7.589844 7.589844 0 4.191406 3.398437 7.589843 7.589844 7.589843h30.519531c1.074219 0 2.136719-.25 2.949219-.59375 2.722656-1.152343-2.089844 2.820313 87.765625-91.515625 1.285156-1.355468 2.089844-3.269531 2.089844-5.230468v-204.117188h77.433593c5.859375 0 10.625 4.769531 10.625 10.628906v316.589844c0 4.191406 3.402344 7.589844 7.59375 7.589844 4.199219 0 7.589844-3.398438 7.589844-7.589844v-316.589844c0-14.230468-11.578125-25.808594-25.808594-25.808594zm-162.648437 290.027344v-49.472656c0-7.53125 6.125-13.667969 13.664062-13.667969h46.285156zm0 0"></path><path d="m418.050781 443.960938c-4.191406 0-7.59375 3.390624-7.59375 7.59375v34.636718c0 5.859375-4.765625 10.625-10.625 10.625h-301.304687c-5.863282 0-10.628906-4.765625-10.628906-10.625v-90.765625h80.8125c4.1875 0 7.589843-3.398437 7.589843-7.589843 0-4.191407-3.402343-7.589844-7.589843-7.589844-29.535157 0-114.429688 0-139.863282 0-7.542968 0-13.664062-6.136719-13.664062-13.664063v-292.339843c0-4.1875-3.402344-7.589844-7.59375-7.589844-4.199219 0-7.589844 3.402344-7.589844 7.589844v292.339843c0 15.898438 12.9375 28.84375 28.847656 28.84375h43.867188v90.765625c0 14.230469 11.578125 25.808594 25.8125 25.808594h301.304687c14.230469 0 25.808594-11.578125 25.808594-25.808594v-34.636718c0-4.203126-3.390625-7.59375-7.589844-7.59375zm0 0"></path><path d="m360.785156 432.273438c-13.617187 0-24.695312 11.078124-24.695312 24.695312s11.078125 24.695312 24.695312 24.695312c13.480469 0 24.464844-10.859374 24.683594-24.289062.003906-.070312.011719-.136719.011719-.207031v-124.230469c0-4.992188-4.742188-8.621094-9.546875-7.335938l-77.207032 20.570313c-3.324218.882813-5.636718 3.894531-5.636718 7.335937v80.824219c-16.1875-6.785156-34.207032 5.167969-34.207032 22.785157 0 13.617187 11.078126 24.695312 24.695313 24.695312 13.957031 0 25.269531-11.648438 24.667969-25.757812.042968-.605469.019531-29.007813.027344-46.390626l62.023437-16.523437v41.039063c-2.929687-1.226563-6.144531-1.90625-9.511719-1.90625zm0 34.207031c-5.246094 0-9.511718-4.265625-9.511718-9.511719s4.265624-9.511719 9.511718-9.511719 9.511719 4.265625 9.511719 9.511719-4.265625 9.511719-9.511719 9.511719zm-77.207031.152343c-5.246094 0-9.515625-4.269531-9.515625-9.515624 0-5.242188 4.269531-9.511719 9.515625-9.511719 5.242187 0 9.511719 4.269531 9.511719 9.511719 0 5.246093-4.265625 9.515624-9.511719 9.515624zm24.695313-72.679687v-34.613281l62.023437-16.523438v34.613282zm0 0"></path><path d="m122.523438 236.363281c3.9375 0 7.992187-1.722656 7.992187-5.042969v-76.867187c0-5.902344-3.933594-7.992187-7.992187-7.992187-5.78125 0-8.488282 1.226562-12.546876 8.484374l-15.125 27.546876-15.128906-27.546876c-4.058594-7.253906-6.640625-8.484374-12.417968-8.484374-4.058594 0-7.996094 2.089843-7.996094 7.992187v76.867187c0 3.320313 3.9375 5.042969 7.996094 5.042969 3.933593 0 7.992187-1.722656 7.992187-5.042969v-53.867187l14.144531 26.5625c2.46875 4.488281 8.4375 4.113281 10.699219 0l14.390625-25.578125v52.882812c0 3.320313 3.933594 5.042969 7.992188 5.042969zm0 0"></path><path d="m161.257812 231.320312v-28.535156h13.773438c16.234375 0 28.90625-7.746094 28.90625-27.917968v-.734376c0-20.171874-12.300781-27.671874-27.917969-27.671874h-24.722656c-3.691406 0-6.027344 2.335937-6.027344 4.917968v79.941406c0 3.320313 3.9375 5.042969 7.996094 5.042969 3.933594 0 7.992187-1.722656 7.992187-5.042969zm0-70.839843h13.773438c7.996094 0 12.914062 4.550781 12.914062 14.140625v1.476562c0 9.59375-4.917968 14.144532-12.914062 14.144532h-13.773438zm0 0"></path><path d="m237.503906 223.078125c-7.867187 0-12.789062-3.441406-12.789062-8.976563 0-3.9375-1.722656-5.65625-8.242188-5.65625-5.53125 0-7.625 1.351563-7.625 6.269532 0 9.964844 8.117188 22.382812 28.289063 22.382812 16.234375 0 29.515625-7.5 29.515625-27.300781v-2.335937c0-10.207032-5.289063-15.742188-12.546875-18.574219 6.027343-2.828125 9.59375-10.699219 9.59375-20.414063 0-16.355468-11.066407-22.015625-25.949219-22.015625-20.785156 0-26.933594 12.667969-26.933594 21.402344 0 5.164063 1.105469 6.886719 8.238282 6.886719 5.90625 0 7.628906-2.460938 7.628906-6.152344 0-4.917969 2.949218-8.238281 10.945312-8.238281 6.640625 0 10.820313 2.707031 10.820313 10.820312 0 10.578125-5.164063 12.054688-11.316407 12.054688-3.566406 0-4.792968 3.199219-4.792968 6.273437 0 3.195313 1.226562 6.273438 4.792968 6.273438 7.871094 0 13.53125 2.582031 13.53125 11.683594v2.335937c0 9.347656-3.9375 13.28125-13.160156 13.28125zm0 0"></path></svg> 