<svg xmlns="http://www.w3.org/2000/svg" viewBox="0 0 40 40"><defs/><radialGradient id="b" cx="55.246%" cy="50.926%" r="61.975%" gradientTransform="matrix(.86319 0 0 1 .076 0)"><stop offset=".72" stop-opacity="0"/><stop offset=".95" stop-opacity=".53"/><stop offset="1"/></radialGradient><radialGradient id="d" cx="41.835%" cy="72.564%" r="85.122%" gradientTransform="matrix(.14981 -.80127 .98871 .12141 -.362 .973)"><stop offset=".76" stop-opacity="0"/><stop offset=".95" stop-opacity=".5"/><stop offset="1"/></radialGradient><radialGradient id="e" cx="10.102%" cy="27.789%" r="118.831%" gradientTransform="matrix(-.0266 .9992 -.66539 -.03996 .289 .188)"><stop offset="0" stop-color="#35c1f1"/><stop offset=".11" stop-color="#34c1ed"/><stop offset=".23" stop-color="#2fc2df"/><stop offset=".31" stop-color="#2bc3d2"/><stop offset=".67" stop-color="#36c752"/></radialGradient><radialGradient id="f" cx="93.772%" cy="45.403%" r="57.095%" gradientTransform="matrix(.18646 .96 -.63928 .28 1.053 -.573)"><stop offset="0" stop-color="#66eb6e"/><stop offset="1" stop-color="#66eb6e" stop-opacity="0"/></radialGradient><linearGradient id="a" x1="0%" x2="100.026%" y1="50.013%" y2="50.013%"><stop offset="0" stop-color="#0c59a4"/><stop offset="1" stop-color="#114a8b"/></linearGradient><linearGradient id="c" x1="76.657%" x2="33.238%" y1="24.794%" y2="83.151%"><stop offset="0" stop-color="#1b9de2"/><stop offset=".16" stop-color="#1595df"/><stop offset=".67" stop-color="#0680d7"/><stop offset="1" stop-color="#0078d4"/></linearGradient><g fill="none"><path fill="url(#a)" d="M36.117 29.656a14.588 14.588 0 01-1.64.733 15.855 15.855 0 01-5.588 1.006c-7.365 0-13.78-5.067-13.78-11.568a4.9 4.9 0 012.556-4.25c-6.661.28-8.373 7.221-8.373 11.288 0 11.5 10.597 12.665 12.88 12.665 1.232 0 3.089-.358 4.203-.71l.204-.068a19.975 19.975 0 0010.366-8.218.623.623 0 00-.828-.878z"/><path fill="url(#b)" d="M36.117 29.656a14.588 14.588 0 01-1.64.733 15.855 15.855 0 01-5.588 1.006c-7.365 0-13.78-5.067-13.78-11.568a4.9 4.9 0 012.556-4.25c-6.661.28-8.373 7.221-8.373 11.288 0 11.5 10.597 12.665 12.88 12.665 1.232 0 3.089-.358 4.203-.71l.204-.068a19.975 19.975 0 0010.366-8.218.623.623 0 00-.828-.878z" opacity=".35"/><path fill="url(#c)" d="M16.609 37.575a12.327 12.327 0 01-3.54-3.321 12.563 12.563 0 014.596-18.677c.486-.23 1.315-.643 2.419-.623a5.035 5.035 0 013.998 2.023c.629.84.975 1.856.99 2.905 0-.033 3.807-12.39-12.451-12.39C5.788 7.493.17 13.978.17 19.666a20.257 20.257 0 001.884 8.716c4.29 9.152 14.752 13.642 24.34 10.445a11.759 11.759 0 01-9.771-1.245z"/><path fill="url(#d)" d="M16.609 37.575a12.327 12.327 0 01-3.54-3.321 12.563 12.563 0 014.596-18.677c.486-.23 1.315-.643 2.419-.623a5.035 5.035 0 013.998 2.023c.629.84.975 1.856.99 2.905 0-.033 3.807-12.39-12.451-12.39C5.788 7.493.17 13.978.17 19.666a20.257 20.257 0 001.884 8.716c4.29 9.152 14.752 13.642 24.34 10.445a11.759 11.759 0 01-9.771-1.245z" opacity=".41"/><path fill="url(#e)" d="M23.861 23.169c-.126.163-.513.389-.513.88 0 .407.265.798.735 1.126 2.238 1.556 6.457 1.351 6.468 1.351a9.27 9.27 0 004.711-1.3 9.553 9.553 0 004.736-8.23c.04-3.488-1.245-5.807-1.765-6.834C34.935 3.71 27.816 0 20.075 0 9.18-.001.305 8.749.152 19.642c.075-5.687 5.728-10.28 12.452-10.28.545 0 3.651.053 6.537 1.567 2.543 1.336 3.875 2.948 4.801 4.547.962 1.66 1.133 3.758 1.133 4.594s-.426 2.075-1.214 3.099z"/><path fill="url(#f)" d="M23.861 23.169c-.126.163-.513.389-.513.88 0 .407.265.798.735 1.126 2.238 1.556 6.457 1.351 6.468 1.351a9.27 9.27 0 004.711-1.3 9.553 9.553 0 004.736-8.23c.04-3.488-1.245-5.807-1.765-6.834C34.935 3.71 27.816 0 20.075 0 9.18-.001.305 8.749.152 19.642c.075-5.687 5.728-10.28 12.452-10.28.545 0 3.651.053 6.537 1.567 2.543 1.336 3.875 2.948 4.801 4.547.962 1.66 1.133 3.758 1.133 4.594s-.426 2.075-1.214 3.099z"/></g></svg>