<svg xmlns="http://www.w3.org/2000/svg" viewBox="0 0 40 40"><defs/><linearGradient id="a" x1="50%" x2="50%" y1="0%" y2="100%"><stop offset="0" stop-color="#f5f5f6"/><stop offset="1" stop-color="#ededee"/></linearGradient><g fill="none" fill-rule="evenodd"><path fill="url(#a)" d="M40 20c0 11.046-8.954 20-20 20S0 31.046 0 20 8.954 0 20 0s20 8.954 20 20"/><path fill="#fff" d="M39.09 20c0 10.544-8.546 19.09-19.09 19.09S.91 30.545.91 20 9.455.91 20 .91 39.09 9.455 39.09 20"/><path fill="#ec1c24" d="M32.702 11.291L22.145 21.866v13.147c0 .236-1.002.426-2.142.442-1.094-.016-2.142-.206-2.142-.442V21.866L7.304 11.29c-.17-.173.37-.994 1.202-1.846.832-.852 1.649-1.405 1.803-1.231l9.678 9.674 9.679-9.674c.17-.174.97.379 1.803 1.23.832.853 1.387 1.674 1.233 1.847"/></g></svg>